<svg xmlns="http://www.w3.org/2000/svg" viewBox="0 0 33.99 19.02"><defs><style>.cls-1{fill:#000;}</style></defs><title>Recurso 2</title><g id="Capa_2" data-name="Capa 2"><g id="Capa_1-2" data-name="Capa 1"><path class="cls-1" d="M32.44,10.94C31,9.49,31.46,8.31,32,7A4.51,4.51,0,0,0,32.48,4,2.93,2.93,0,0,0,30,2a6.38,6.38,0,0,0-1.85-.11.45.45,0,0,0-.12.06V1.41a.53.53,0,0,0-.53-.53h-.46V.63c0-.35-.39-.63-.86-.63h-3.1c-.48,0-.86.28-.86.63V.88H1.15a1.15,1.15,0,1,0,0,2.29h.23V2a.25.25,0,1,1,.49,0V3.17H3V2a.25.25,0,1,1,.49,0V3.17H4.69V2a.25.25,0,1,1,.49,0V3.17H6.34V2a.25.25,0,1,1,.49,0V3.17H8V2a.24.24,0,1,1,.48,0V3.17H9.65V2a.25.25,0,1,1,.49,0V3.17H11.3V2a.25.25,0,1,1,.49,0V3.17H13V2a.25.25,0,1,1,.49,0V3.17h1.17V2a.25.25,0,1,1,.49,0V3.17h1.16V2a.25.25,0,1,1,.49,0V3.17h1.16V2a.25.25,0,1,1,.49,0V3.17h1.17V2a.25.25,0,1,1,.49,0V3.17h2.2v.6c0,.35.38.63.86.63h-.19a.57.57,0,0,0-.5,1c.75.74,2.5,1,2.34,1.42-.33,1,.76,1.53.76,1.53l1.15,10a.86.86,0,0,0,1,.74l3.12-.46a1.25,1.25,0,0,0,1-1.61L29.35,9l.56-.14a.82.82,0,0,0,.52-1.18,5.88,5.88,0,0,0-.54-.8,1.11,1.11,0,0,0-.95-.41l-1.08.07L26.52,4.36a.67.67,0,0,0,.56-.59v-.6h.46a.53.53,0,0,0,.53-.53V2.25a.34.34,0,0,0,.17,0A6.1,6.1,0,0,1,30,2.4,2.47,2.47,0,0,1,32,4.14a4.18,4.18,0,0,1-.46,2.65A6,6,0,0,0,31,8.9a3.24,3.24,0,0,0,1.1,2.37,3.84,3.84,0,0,1,1.4,2.8,2.33,2.33,0,0,1-.74,1.58.24.24,0,0,0,0,.33.25.25,0,0,0,.18.08.3.3,0,0,0,.15,0A2.8,2.8,0,0,0,34,14.1,4.28,4.28,0,0,0,32.44,10.94Z"/></g></g></svg>